<svg width="121" height="24" viewBox="0 0 121 24" fill="none" xmlns="http://www.w3.org/2000/svg">
<path fill-rule="evenodd" clip-rule="evenodd" d="M119.225 7.04733C118.362 7.04733 117.828 6.372 117.828 5.54533C117.828 4.66 118.439 4.04333 119.225 4.04333C120.001 4.04333 120.612 4.66 120.612 5.54533C120.612 6.43467 120.001 7.04733 119.225 7.04733ZM119.225 3.72667C118.264 3.72667 117.44 4.45133 117.44 5.54533C117.44 6.58133 118.182 7.364 119.225 7.364C120.175 7.364 121 6.63933 121 5.54533C121 4.45133 120.175 3.72667 119.225 3.72667ZM118.866 5.44333V4.85467H119.263C119.462 4.85467 119.7 4.884 119.7 5.12667C119.7 5.41867 119.481 5.44333 119.234 5.44333H118.866ZM120.03 5.152C120.03 4.74267 119.783 4.57267 119.297 4.57267H118.536V6.586H118.866V5.72533H119.176L119.695 6.586H120.069L119.506 5.70133C119.807 5.66667 120.03 5.516 120.03 5.152ZM98.0854 14.9047C98.0854 13.33 98.1179 11.2353 98.1179 11.2353C98.1179 6.522 96.0555 4.40533 90.228 4.40533C86.9568 4.40533 84.6258 4.98067 80.973 4.98067C81.1765 8.28933 81.1844 12.3767 81.1691 14.9047C81.1851 17.4813 81.0847 22.0913 80.973 23.5773H87.2347C87.0911 22.086 86.9654 17.7973 86.9821 14.9047C86.9821 13.2587 87.004 11.264 87.0672 8.58933C87.6895 8.374 88.4827 8.21467 89.3417 8.21467C91.5344 8.21467 92.2405 9.246 92.2405 12.08C92.2405 12.08 92.2731 13.8567 92.2731 14.9047C92.2731 17.4813 92.1887 22.0913 92.0763 23.5773H98.34C98.1944 22.086 98.0687 17.7973 98.0854 14.9047ZM109.127 20.3487C107.126 20.3487 106.279 19.68 106.279 18.0053C106.279 16.3947 107.36 15.4767 110.087 15.4767C110.335 15.4767 110.641 15.4673 110.861 15.4913C110.851 17.0533 110.812 18.8747 110.905 20.1387C110.432 20.2653 109.73 20.3487 109.127 20.3487ZM116.849 11.4987C116.849 6.28 114.696 4.39133 108.957 4.39133C106.148 4.39133 103.675 4.81133 102.166 5.426L102.39 9.59C103.704 8.88667 105.661 8.21333 107.53 8.21333C110.159 8.21333 110.953 9.29667 110.953 11.9087V12.294C110.768 12.2893 110.31 12.2847 110.058 12.2847C103.509 12.2847 100.486 14.2707 100.486 17.952C100.486 21.7447 102.37 23.9753 107.731 23.9753C110.559 23.9753 113.348 23.5753 116.941 23.5753C116.682 22.0573 116.673 19.8707 116.673 18.3667C116.673 16.682 116.849 14.2907 116.849 11.4987ZM76.7351 19.8293C74.8083 19.8293 74.2419 19.0647 74.2419 16.2553V9.00867H78.0469V4.98067H74.3011C74.3031 3.556 74.4121 1.45067 74.5358 0H71.0093C70.5406 3.52133 69.5286 5.332 66.3207 5.866C66.3074 6.81467 66.3579 8.104 66.3207 9.00733H68.4582C68.4256 11.0073 68.3625 14.6587 68.3625 17.988C68.3625 22.2367 70.5579 23.9773 74.6814 23.9773C76.6886 23.9773 78.1666 23.6873 78.6546 23.5453L78.4 19.4033C78.0403 19.644 77.3329 19.8293 76.7351 19.8293ZM53.7946 12.514V12.4213C53.7946 9.80933 54.6223 7.89133 57.0119 7.89133C58.3655 7.89133 59.2418 8.60333 59.2418 9.89733C59.2418 11.718 58.0344 12.5627 55.5172 12.5627C54.9089 12.5627 54.2666 12.5527 53.7946 12.514ZM36.5506 20.3487C34.5546 20.3487 33.7029 19.68 33.7029 18.0053C33.7029 16.3947 34.7834 15.4767 37.5093 15.4767C37.7626 15.4767 38.0691 15.4673 38.2885 15.4913C38.2739 17.0533 38.24 18.8747 38.3278 20.1387C37.855 20.2653 37.1589 20.3487 36.5506 20.3487ZM56.2187 15.7307C61.9824 15.7307 64.9424 13.92 64.9424 10.0193C64.9424 6.65133 62.503 4.41533 57.2027 4.41533C50.7807 4.41533 48.2104 7.29067 47.6306 12.4353C46.6911 12.3767 45.6692 12.3527 44.2717 12.3473C44.2717 12.07 44.2763 11.7867 44.2763 11.4987C44.2763 6.28 42.1202 4.39133 36.3797 4.39133C33.576 4.39133 31.0987 4.81133 29.5887 5.426L29.8128 9.59C31.1273 8.88667 33.0893 8.21333 34.9542 8.21333C37.5824 8.21333 38.381 9.29667 38.381 11.9087L38.3763 12.294C38.1961 12.2893 37.7334 12.2847 37.4807 12.2847C30.9378 12.2847 27.9093 14.2707 27.9093 17.952C27.9093 21.7447 29.7935 23.9753 35.1537 23.9753C37.982 23.9753 40.7718 23.5753 44.3694 23.5753C44.1061 22.0573 44.0968 19.8707 44.0968 18.3667C44.0968 17.576 44.1354 16.6287 44.1793 15.5547C45.7124 15.57 46.8467 15.6087 47.592 15.6427C48.1425 21.7447 51.2967 24 57.8596 24C60.2837 24 62.737 23.5853 64.0222 22.9847L63.7982 18.8207C62.5223 19.5627 60.7464 20.168 58.799 20.168C55.5711 20.168 53.8278 18.4793 53.8278 15.814V15.6867C54.4029 15.716 55.5465 15.7307 56.2187 15.7307ZM20.5107 3.564C19.9269 2.976 19.1636 2.682 18.4004 2.682C17.6338 2.682 16.8672 2.978 16.2808 3.56733L12.8075 7.05067L9.32825 3.56267C8.74516 2.976 7.97857 2.68133 7.21265 2.68133C6.44805 2.68133 5.68279 2.974 5.10036 3.562L0.873137 7.79933C-0.29171 8.96733 -0.29171 10.8673 0.877127 12.0373L12.8075 24L24.7379 12.0373C25.9047 10.868 25.9021 8.96933 24.7352 7.79933L20.5107 3.564Z" fill="#7D3F98"/>
</svg>
